<svg width="101" height="27" viewBox="0 0 101 27" fill="none" xmlns="http://www.w3.org/2000/svg">
<path d="M9.2661 3C4.14887 3 0 7.4775 0 13C0 17.6858 2.98985 21.6067 7.02062 22.6917C6.97732 22.5567 6.94955 22.4 6.94955 22.2058V20.4967C6.57351 20.4967 5.94338 20.4967 5.78515 20.4967C5.15119 20.4967 4.58747 20.2025 4.31412 19.6558C4.01066 19.0483 3.95815 18.1192 3.20606 17.5508C2.9829 17.3617 3.15278 17.1458 3.40991 17.175C3.8848 17.32 4.2786 17.6717 4.64924 18.1933C5.0183 18.7158 5.19205 18.8342 5.88166 18.8342C6.21599 18.8342 6.71631 18.8133 7.18737 18.7333C7.44061 18.0392 7.87847 17.4 8.41358 17.0983C5.32794 16.7558 3.85545 15.0992 3.85545 12.85C3.85545 11.8817 4.23768 10.945 4.88709 10.1558C4.67395 9.3725 4.40601 7.775 4.96892 7.16667C6.3573 7.16667 7.19662 8.13833 7.39816 8.40083C8.09001 8.145 8.84984 8 9.64831 8C10.4483 8 11.2112 8.145 11.9045 8.4025C12.1038 8.14167 12.9439 7.16667 14.3354 7.16667C14.9006 7.77583 14.6296 9.38 14.4141 10.1617C15.0597 10.9492 15.4395 11.8833 15.4395 12.85C15.4395 15.0975 13.9693 16.7533 10.8884 17.0975C11.7362 17.575 12.3547 18.9167 12.3547 19.9275V22.2058C12.3547 22.2925 12.337 22.355 12.3277 22.4292C15.9384 21.0633 18.5321 17.3633 18.5321 13C18.5321 7.4775 14.3832 3 9.2661 3Z" fill="white"/>
<path d="M39.937 13.212H41.9121V19.218C41.1989 19.8487 40.3691 20.3327 39.4227 20.67C38.4763 21.0073 37.4887 21.176 36.46 21.176C35.0061 21.176 33.6962 20.8387 32.5304 20.164C31.3645 19.4747 30.4455 18.536 29.7734 17.348C29.1151 16.1453 28.7859 14.796 28.7859 13.3C28.7859 11.804 29.1151 10.4547 29.7734 9.25201C30.4455 8.04934 31.3645 7.11068 32.5304 6.43601C33.7099 5.76134 35.0335 5.42401 36.5012 5.42401C37.6533 5.42401 38.6957 5.62934 39.6284 6.04001C40.5748 6.43601 41.3772 7.02268 42.0356 7.80001L40.76 9.16401C39.6079 7.97601 38.2156 7.38201 36.5835 7.38201C35.4861 7.38201 34.4986 7.63868 33.6208 8.15201C32.7567 8.65068 32.0777 9.35468 31.584 10.264C31.0902 11.1587 30.8433 12.1707 30.8433 13.3C30.8433 14.4147 31.0902 15.4267 31.584 16.336C32.0777 17.2307 32.7567 17.9347 33.6208 18.448C34.4986 18.9613 35.4793 19.218 36.5629 19.218C37.8521 19.218 38.9769 18.888 39.937 18.228V13.212ZM45.5632 9.34001H47.5383V21H45.5632V9.34001ZM46.5508 7.09601C46.1667 7.09601 45.8444 6.96401 45.5838 6.70001C45.3369 6.43601 45.2134 6.11334 45.2134 5.73201C45.2134 5.35068 45.3369 5.02801 45.5838 4.76401C45.8444 4.48534 46.1667 4.34601 46.5508 4.34601C46.9348 4.34601 47.2503 4.47801 47.4972 4.74201C47.7578 4.99134 47.8881 5.30668 47.8881 5.68801C47.8881 6.08401 47.7578 6.42134 47.4972 6.70001C47.2503 6.96401 46.9348 7.09601 46.5508 7.09601ZM57.4405 20.318C57.1525 20.582 56.7959 20.7873 56.3707 20.934C55.9455 21.066 55.5066 21.132 55.0539 21.132C53.9567 21.132 53.1063 20.8167 52.5027 20.186C51.8993 19.5553 51.5975 18.6533 51.5975 17.48V11.078H49.7458V9.34001H51.5975V6.78801H53.5726V9.34001H56.6999V11.078H53.5726V17.392C53.5726 18.0227 53.7166 18.5067 54.0047 18.844C54.3064 19.1813 54.7317 19.35 55.2802 19.35C55.8838 19.35 56.3982 19.1667 56.8233 18.8L57.4405 20.318ZM72.5021 5.60001V21H70.4446V14.136H62.1739V21H60.1165V5.60001H62.1739V12.222H70.4446V5.60001H72.5021ZM80.4956 9.23001C82.0043 9.23001 83.1564 9.62601 83.952 10.418C84.7613 11.21 85.1659 12.3907 85.1659 13.96V21H83.2936V19.46C82.9644 20.0027 82.4912 20.4207 81.874 20.714C81.2705 20.9927 80.5504 21.132 79.7137 21.132C78.493 21.132 77.5123 20.8167 76.7716 20.186C76.0447 19.5553 75.6812 18.7267 75.6812 17.7C75.6812 16.6733 76.031 15.852 76.7305 15.236C77.43 14.6053 78.541 14.29 80.0635 14.29H83.1908V13.872C83.1908 12.9627 82.9439 12.266 82.4501 11.782C81.9563 11.298 81.2294 11.056 80.2692 11.056C79.6246 11.056 78.9936 11.1733 78.3764 11.408C77.7592 11.628 77.238 11.9287 76.8128 12.31L75.9898 10.726C76.5522 10.242 77.2243 9.87534 78.0061 9.62601C78.7879 9.36201 79.6177 9.23001 80.4956 9.23001ZM80.0429 19.504C80.7973 19.504 81.4488 19.328 81.9975 18.976C82.5461 18.6093 82.9439 18.096 83.1908 17.436V15.808H80.1458C78.4725 15.808 77.6358 16.4093 77.6358 17.612C77.6358 18.1987 77.8483 18.6607 78.2736 18.998C78.6988 19.3353 79.2885 19.504 80.0429 19.504ZM94.6024 9.23001C95.6583 9.23001 96.6047 9.47934 97.4417 9.97801C98.2787 10.4767 98.9295 11.1733 99.3962 12.068C99.876 12.9627 100.116 13.9967 100.116 15.17C100.116 16.3433 99.876 17.3847 99.3962 18.294C98.9295 19.1887 98.2787 19.8853 97.4417 20.384C96.6047 20.8827 95.6583 21.132 94.6024 21.132C93.7935 21.132 93.0524 20.9633 92.3803 20.626C91.7082 20.2887 91.1527 19.7973 90.7138 19.152V21H88.821V4.67601H90.7961V11.1C91.235 10.484 91.7837 10.022 92.4421 9.71401C93.1004 9.39134 93.8206 9.23001 94.6024 9.23001ZM94.4379 19.284C95.1374 19.284 95.7611 19.1153 96.3101 18.778C96.8721 18.426 97.3117 17.942 97.6268 17.326C97.956 16.6953 98.1206 15.9767 98.1206 15.17C98.1206 14.3633 97.956 13.652 97.6268 13.036C97.3117 12.4053 96.8721 11.9213 96.3101 11.584C95.7611 11.2467 95.1374 11.078 94.4379 11.078C93.7524 11.078 93.1278 11.2467 92.5655 11.584C92.0031 11.9213 91.5642 12.4053 91.2488 13.036C90.9332 13.652 90.7756 14.3633 90.7756 15.17C90.7756 15.9767 90.9332 16.6953 91.2488 17.326C91.5642 17.942 92.0031 18.426 92.5655 18.778C93.1278 19.1153 93.7524 19.284 94.4379 19.284Z" fill="white"/>
</svg>
